# xmcd
#
# Track frame offsets:
# 150
# 15515
# 27547
# 42068
# 55138
# 64309
# 75877
# 87830
# 104005
# 117615
# 132939
# 146608
# 158196
# 170791
# 184786
# 201135
# 215132
# 229060
# 241601
# 254934
# 270555
# 284405
# 297172
#
# Disc length: 4152 seconds
#
#
# Revision: 0
# Processed by: cddbd v1.5.2PL0 Copyright (c) Steve Scherf et al.
# Submitted via: FreeRIP 2.942 
#
DISCID=5b103617
DTITLE=Dj Eduardo - Melody Fantástico Tupinambá
DYEAR=2006
DGENRE=Brega Melody
TTITLE0=Melody do Fantástico Tupinambá
TTITLE1=Melody dos Infectados da Saveiro
TTITLE2=Melody Rubi RMX
TTITLE3=Melody Ciclone
TTITLE4=Melody Superpop
TTITLE5=Melody Dj Wesley
TTITLE6=O Meu Amor
TTITLE7=Quero Você
TTITLE8=Fica Comigo
TTITLE9=Melody Tranzasom
TTITLE10=Melody Intersom
TTITLE11=Melody do Laécio do Tupinambá
TTITLE12=Volte Pra Mim
TTITLE13=Melody Tupinambá
TTITLE14=Melody do Chico Doido
TTITLE15=Melody do Tremendo Vacilão
TTITLE16=Amor Proibido
TTITLE17=Nova Chama
TTITLE18=Fica Comigo
TTITLE19=Se Tu Te Vais
TTITLE20=Melody do Dj Diego Ferrari
TTITLE21=Fantasias
TTITLE22=Melody TATU II
EXTD=
EXTT0=
EXTT1=
EXTT2=
EXTT3=
EXTT4=
EXTT5=
EXTT6=
EXTT7=
EXTT8=
EXTT9=
EXTT10=
EXTT11=
EXTT12=
EXTT13=
EXTT14=
EXTT15=
EXTT16=
EXTT17=
EXTT18=
EXTT19=
EXTT20=
EXTT21=
EXTT22=
PLAYORDER=
